# xmcd
#
# Track frame offsets:
#	150
#	20297
#	38150
#	57547
#	78817
#	94772
#	113625
#	131240
#	147527
#	166077
#	178275
#	193050
#
# Disc length: 2713 seconds
#
# Revision: 1
# Processed by: cddbd v1.4PL0 Copyright (c) Steve Scherf et al.
# Submitted via: audiograbber 1.81.03
#
DISCID=a40a970c
DTITLE=Ken`Boynton - Chance
DYEAR=1994
DGENRE=
TTITLE0=Clean Up This Mess
TTITLE1=Winter's Coming
TTITLE2=Take It From Here
TTITLE3=Chance
TTITLE4=I Miss You
TTITLE5=I Can See
TTITLE6=Rain And Rain
TTITLE7=Do It Yourself
TTITLE8=Heaven Sent
TTITLE9=It Isn't Me
TTITLE10=Lone Gone
TTITLE11=bonus track
EXTD=
EXTT0=
EXTT1=
EXTT2=
EXTT3=
EXTT4=
EXTT5=
EXTT6=
EXTT7=
EXTT8=
EXTT9=
EXTT10=
EXTT11=
PLAYORDER=
